<?xml version="1.0" standalone="no"?>
<!DOCTYPE svg PUBLIC "-//W3C//DTD SVG 20010904//EN"
 "http://www.w3.org/TR/2001/REC-SVG-20010904/DTD/svg10.dtd">
<svg version="1.0" xmlns="http://www.w3.org/2000/svg"
 width="197.000000pt" height="300.000000pt" viewBox="0 0 197.000000 300.000000"
 preserveAspectRatio="xMidYMid meet">

<g transform="translate(0.000000,300.000000) scale(0.100000,-0.100000)"
fill="#000000" stroke="none">
<path d="M884 2991 c-420 -67 -768 -544 -860 -1177 -24 -161 -24 -467 0 -628
84 -579 380 -1028 761 -1153 68 -22 98 -26 200 -26 102 0 132 4 200 26 381
125 677 574 761 1153 24 161 24 467 0 628 -97 671 -476 1156 -923 1180 -48 3
-111 1 -139 -3z m237 -25 c178 -38 354 -161 492 -345 392 -520 449 -1410 131
-2032 -387 -757 -1131 -757 -1518 0 -274 536 -274 1287 1 1824 213 416 551
625 894 553z"/>
<path d="M952 2858 c0 -40 3 -58 5 -40 4 30 7 32 44 32 37 0 39 -2 40 -32 1
-32 2 -32 10 7 11 56 11 95 -1 95 -5 0 -10 -11 -10 -25 0 -22 -4 -25 -35 -25
-32 0 -35 2 -35 30 0 17 -4 30 -10 30 -6 0 -9 -30 -8 -72z"/>
<path d="M800 2890 c-26 -26 -25 -60 1 -94 25 -31 61 -34 89 -6 22 22 26 40
10 40 -5 0 -10 -7 -10 -15 0 -19 -34 -37 -55 -29 -37 15 -48 86 -15 104 14 7
26 8 39 0 28 -14 36 -12 21 5 -17 21 -56 19 -80 -5z"/>
<path d="M1106 2852 c-18 -67 -19 -75 -7 -68 5 3 12 21 15 41 10 54 22 50 40
-15 9 -33 21 -60 26 -60 5 0 14 19 20 41 6 23 16 52 20 65 6 15 6 24 0 24 -6
0 -15 -20 -22 -45 -7 -25 -15 -45 -18 -45 -3 0 -13 27 -23 60 -9 33 -21 60
-26 60 -5 0 -16 -26 -25 -58z"/>
<path d="M667 2841 c-15 -10 -30 -21 -33 -24 -5 -4 43 -95 61 -115 1 -2 20 7
41 19 49 28 48 28 42 34 -3 3 -21 -4 -41 -15 -35 -21 -36 -21 -46 -1 -15 27
-15 27 19 41 17 7 30 17 30 22 0 5 -3 8 -7 6 -5 -2 -21 -10 -36 -18 -25 -12
-30 -12 -38 1 -13 21 -12 22 29 46 20 12 30 22 22 22 -8 0 -27 -8 -43 -18z"/>
<path d="M1266 2809 c-49 -39 -26 -119 36 -119 58 0 92 92 46 124 -30 21 -50
20 -82 -5z m84 -19 c14 -27 4 -57 -26 -76 -22 -15 -26 -15 -49 0 -29 19 -32
42 -9 74 20 29 69 30 84 2z"/>
<path d="M547 2759 c-20 -17 -37 -35 -37 -41 0 -6 8 -3 19 6 18 16 20 15 59
-31 23 -26 44 -44 48 -40 4 3 -12 27 -35 53 -40 43 -42 46 -24 59 10 7 15 16
12 19 -3 3 -22 -8 -42 -25z"/>
<path d="M1390 2695 l-44 -45 29 -30 c16 -16 31 -28 33 -25 3 3 -5 16 -18 30
l-24 25 44 45 c24 25 40 45 34 45 -5 0 -30 -20 -54 -45z"/>
<path d="M854 2710 c-286 -91 -512 -473 -574 -970 -13 -109 -13 -371 0 -480
43 -343 166 -642 336 -815 481 -488 1084 99 1084 1055 0 771 -404 1350 -846
1210z m229 -35 c77 -20 124 -45 195 -104 231 -192 382 -616 382 -1071 0 -697
-344 -1250 -735 -1183 -128 22 -247 102 -343 229 -363 485 -363 1423 0 1908
140 187 323 267 501 221z"/>
<path d="M972 2628 c-7 -7 -12 -17 -12 -24 0 -6 -34 -28 -76 -48 -89 -42 -188
-132 -242 -219 -20 -32 -49 -65 -64 -73 -55 -29 -83 -108 -59 -169 6 -15 1
-28 -20 -53 -31 -35 -35 -52 -19 -83 9 -16 5 -27 -25 -63 l-35 -43 35 -27 35
-27 2 -517 3 -517 488 -3 487 -2 0 512 0 512 36 37 37 38 -32 40 c-26 33 -30
44 -22 60 17 32 13 51 -19 82 -28 29 -29 32 -19 77 15 62 -5 114 -55 143 -19
11 -53 49 -76 85 -57 86 -145 166 -231 208 -39 18 -79 46 -88 60 -13 20 -20
23 -29 14z m38 -92 c0 -6 22 -19 49 -29 27 -9 71 -32 97 -50 49 -34 142 -142
132 -153 -3 -3 -32 2 -64 10 -157 40 -320 40 -478 0 -32 -8 -61 -13 -63 -10
-7 7 20 48 63 96 43 48 115 94 172 111 23 7 42 17 42 24 0 6 5 16 12 23 13 13
38 -1 38 -22z m199 -267 c127 -33 177 -53 185 -76 4 -9 5 -18 3 -20 -2 -2 -45
10 -95 26 -117 39 -236 61 -323 61 -78 0 -222 -29 -330 -65 -76 -26 -85 -26
-75 0 7 20 54 40 171 71 191 51 275 51 464 3z m131 -119 c22 -22 27 -60 7 -60
-7 0 -17 10 -22 23 l-10 22 -330 0 -330 0 -10 -22 c-5 -13 -15 -23 -22 -23
-20 0 -15 38 7 60 19 19 33 20 355 20 322 0 336 -1 355 -20z m-187 -120 c167
-98 171 -99 199 -47 8 16 7 22 -6 29 -18 10 -21 33 -7 43 5 3 17 -2 25 -11 18
-17 21 -70 6 -108 -9 -24 -6 -28 31 -52 32 -20 38 -28 29 -39 -9 -11 -30 -2
-118 49 -59 34 -155 90 -213 124 -58 34 -110 62 -115 62 -6 0 -106 -56 -223
-125 -118 -68 -217 -122 -222 -119 -18 11 -8 30 29 50 23 12 35 26 33 35 -3 8
-7 37 -9 65 -4 51 14 84 38 69 15 -9 12 -33 -6 -43 -13 -7 -14 -13 -6 -29 28
-51 31 -50 203 51 89 52 165 94 168 92 3 -2 77 -45 164 -96z m-139 -86 c7 -19
-10 -44 -29 -44 -19 0 -38 28 -31 45 7 20 52 19 60 -1z m416 -639 l0 -485
-445 0 -445 0 0 485 0 485 445 0 445 0 0 -485z"/>
<path d="M750 1700 c17 -33 32 -60 35 -60 3 0 18 27 35 60 28 55 29 60 11 60
-11 0 -23 -12 -32 -32 l-13 -31 -15 31 c-8 19 -22 32 -33 32 -16 0 -15 -6 12
-60z"/>
<path d="M888 1708 c-3 -48 -5 -53 -25 -50 -31 4 -29 -14 1 -22 46 -11 56 1
56 65 0 45 -3 59 -14 59 -11 0 -16 -15 -18 -52z"/>
<path d="M990 1750 c0 -5 11 -10 25 -10 23 0 25 -3 25 -50 0 -38 4 -50 15 -50
11 0 15 12 15 50 0 47 2 50 25 50 14 0 25 5 25 10 0 6 -28 10 -65 10 -37 0
-65 -4 -65 -10z"/>
<path d="M1160 1700 c0 -47 3 -60 15 -60 12 0 15 13 15 60 0 47 -3 60 -15 60
-12 0 -15 -13 -15 -60z"/>
<path d="M617 1744 c-4 -4 -7 -198 -7 -431 l0 -423 370 0 370 0 0 431 0 430
-27 -3 -28 -3 -3 -407 -2 -408 -305 0 -305 0 -2 408 -3 407 -25 3 c-14 2 -29
0 -33 -4z"/>
<path d="M956 1663 c-11 -11 -6 -23 9 -23 8 0 15 4 15 9 0 13 -16 22 -24 14z"/>
<path d="M1100 1650 c0 -5 7 -10 15 -10 8 0 15 5 15 10 0 6 -7 10 -15 10 -8 0
-15 -4 -15 -10z"/>
<path d="M1220 1650 c0 -5 5 -10 10 -10 6 0 10 5 10 10 0 6 -4 10 -10 10 -5 0
-10 -4 -10 -10z"/>
<path d="M720 1337 c0 -280 6 -332 38 -341 10 -2 44 -7 77 -11 33 -4 80 -15
104 -26 42 -18 47 -18 78 -4 19 9 62 21 96 27 34 5 72 12 85 14 47 9 53 49 50
342 l-3 267 -262 3 -263 2 0 -273z m280 234 c0 -16 8 -21 48 -24 39 -3 36 -4
-20 -5 l-68 -2 -1 -67 c0 -38 -3 -63 -5 -56 -9 20 -34 2 -34 -23 0 -27 8 -30
24 -10 15 19 72 28 83 13 5 -7 17 -33 27 -59 10 -27 24 -48 32 -48 11 0 14 21
14 105 0 63 4 105 10 105 6 0 10 -24 10 -52 1 -159 11 -283 23 -289 14 -8 11
-89 -4 -89 -5 0 -6 13 -3 29 5 23 2 32 -16 41 -19 10 -21 17 -15 56 6 40 4 44
-14 44 -14 0 -23 -9 -27 -26 -10 -38 -28 -13 -28 39 1 32 0 34 -3 10 -5 -37
-16 -42 -33 -15 -10 14 -11 14 -6 0 2 -9 -2 -24 -9 -35 -13 -16 -14 -12 -15
40 0 54 13 77 23 40 3 -13 5 -11 6 6 0 13 -7 30 -16 37 -10 7 -13 14 -6 14 6
0 19 -7 27 -16 9 -8 16 -11 16 -6 0 25 -62 45 -88 28 -7 -4 -14 -6 -16 -5 -1
2 -8 15 -14 29 -10 20 -12 21 -9 4 4 -21 -25 -49 -37 -37 -11 12 -6 162 6 169
7 4 8 3 4 -4 -4 -7 -1 -12 8 -12 9 0 16 7 16 15 0 8 -7 15 -16 15 -8 0 -12 5
-9 10 13 20 -14 9 -29 -12 -12 -17 -16 -45 -14 -113 1 -86 2 -87 8 -30 l6 60
5 -55 c4 -49 1 -60 -28 -103 l-33 -49 20 -28 c32 -44 23 -85 -11 -54 -10 9
-25 14 -32 11 -11 -4 -15 23 -21 147 -4 84 -4 177 0 209 7 56 7 56 43 60 20 2
78 4 129 5 85 2 92 1 92 -17z m230 -76 l0 -95 -24 15 c-13 9 -26 26 -30 38 -3
11 -8 18 -12 14 -17 -17 -34 18 -34 69 l0 54 50 0 50 0 0 -95z m-120 73 c0 -9
-15 -12 -50 -10 -65 5 -65 22 0 22 33 0 50 -4 50 -12z m48 -271 c2 -82 -1
-127 -8 -127 -6 0 -10 43 -10 114 0 63 -3 122 -7 132 -4 12 -2 15 8 12 11 -4
15 -33 17 -131z m70 -142 l-3 -73 -25 20 c-14 12 -18 19 -10 16 13 -5 15 13
12 129 -2 93 0 133 7 128 6 -3 12 0 13 7 4 26 9 -155 6 -227z m-353 155 c3 -5
-1 -10 -9 -10 -9 0 -16 5 -16 10 0 6 4 10 9 10 6 0 13 -4 16 -10z m42 -42 c-2
-13 -4 -5 -4 17 -1 22 1 32 4 23 2 -10 2 -28 0 -40z m43 7 c0 -19 -2 -35 -4
-35 -2 0 -6 16 -8 35 -2 19 0 35 4 35 4 0 8 -16 8 -35z m-140 -36 c0 -26 -2
-30 -15 -19 -11 9 -12 16 -2 31 16 25 17 24 17 -12z m60 -24 c-7 -9 -15 -13
-19 -10 -3 3 1 10 9 15 21 14 24 12 10 -5z m216 -7 c-3 -7 -9 -21 -12 -30 -4
-10 -13 -18 -20 -18 -18 0 -18 5 2 35 17 25 40 35 30 13z m-122 -53 c-5 -12
-10 -13 -20 -4 -19 15 -18 19 6 19 13 0 18 -5 14 -15z m3 -13 c26 26 52 -10
60 -83 6 -57 4 -63 -18 -80 -30 -23 -50 -24 -75 -1 -12 11 -38 18 -74 19 -96
4 -130 22 -130 68 l0 23 37 -19 c44 -23 73 -24 73 -5 0 23 -58 59 -86 53 -16
-3 -24 0 -24 10 0 20 28 27 46 13 11 -10 18 -10 26 -2 15 15 48 16 48 2 0 -15
26 -12 40 5 10 12 15 12 37 -2 22 -15 26 -15 40 -1z m90 -32 c0 -22 -4 -37 -8
-34 -15 9 -10 74 6 74 1 0 2 -18 2 -40z m113 -30 c0 -5 -2 -10 -4 -10 -3 0 -8
5 -11 10 -3 6 -1 10 4 10 6 0 11 -4 11 -10z m35 -40 c-14 -16 -20 -17 -27 -8
-12 20 -10 26 15 30 31 5 33 1 12 -22z m-115 8 c0 -10 2 -10 9 0 11 18 43 12
60 -11 19 -26 5 -35 -59 -39 -46 -2 -55 0 -58 15 -2 10 -1 25 2 33 7 17 46 19
46 2z"/>
<path d="M920 1472 c0 -5 7 -15 15 -22 8 -7 15 -8 15 -2 0 5 -7 15 -15 22 -8
7 -15 8 -15 2z"/>
<path d="M891 1452 c-17 -31 -13 -40 5 -14 9 13 14 26 11 29 -3 2 -10 -4 -16
-15z"/>
<path d="M913 1100 c0 -25 2 -35 4 -22 2 12 2 32 0 45 -2 12 -4 2 -4 -23z"/>
<path d="M945 1089 l-20 -8 20 0 c12 -1 16 -4 9 -9 -6 -4 -14 -16 -18 -27 -7
-19 -6 -19 14 1 27 27 24 55 -5 43z"/>
<path d="M986 1055 c4 -9 0 -15 -9 -15 -18 0 -32 -18 -22 -28 3 -3 11 0 16 8
8 12 12 12 16 2 4 -10 8 -10 19 -1 21 17 18 49 -6 49 -13 0 -18 -5 -14 -15z"/>
<path d="M650 660 l0 -50 38 1 c35 1 35 2 8 8 -38 8 -47 31 -12 31 14 0 26 5
26 10 0 6 -11 10 -25 10 -14 0 -25 5 -25 10 0 6 14 10 31 10 17 0 28 4 24 10
-3 6 -19 10 -36 10 -28 0 -29 -1 -29 -50z"/>
<path d="M753 703 c-23 -9 -15 -42 12 -49 14 -3 25 -10 25 -14 0 -16 -22 -22
-33 -11 -17 17 -31 13 -17 -5 8 -8 25 -14 39 -12 33 4 35 38 3 54 -38 19 -39
27 -2 21 32 -6 34 -6 16 8 -21 16 -24 16 -43 8z"/>
<path d="M825 700 c-3 -5 1 -10 9 -10 12 0 16 -10 16 -40 0 -22 5 -40 10 -40
6 0 10 18 10 40 0 30 4 40 16 40 8 0 12 5 9 10 -3 6 -19 10 -35 10 -16 0 -32
-4 -35 -10z"/>
<path d="M917 704 c-4 -4 -7 -27 -7 -51 0 -40 2 -43 28 -43 15 0 33 5 40 12
13 13 16 47 4 65 -9 14 -55 27 -65 17z m51 -43 c3 -21 -11 -40 -30 -41 -5 0
-8 16 -8 36 0 28 3 35 18 32 9 -2 19 -14 20 -27z"/>
<path d="M1068 696 c-19 -14 -25 -32 -8 -21 6 4 10 -8 10 -29 0 -20 5 -36 10
-36 6 0 10 23 10 50 0 28 -1 50 -2 50 -2 0 -11 -7 -20 -14z"/>
<path d="M1134 702 c-6 -4 -11 -25 -10 -47 1 -36 4 -40 26 -40 22 0 25 5 26
35 1 49 -16 70 -42 52z m26 -22 c0 -5 -4 -10 -10 -10 -5 0 -10 5 -10 10 0 6 5
10 10 10 6 0 10 -4 10 -10z m0 -45 c0 -8 -4 -15 -9 -15 -13 0 -22 16 -14 24
11 11 23 6 23 -9z"/>
<path d="M1213 702 c-12 -8 -23 -61 -16 -79 3 -7 16 -13 29 -13 22 0 30 11 24
35 -2 6 -2 20 -2 32 2 22 -18 36 -35 25z m27 -22 c0 -5 -7 -10 -15 -10 -8 0
-15 5 -15 10 0 6 7 10 15 10 8 0 15 -4 15 -10z m-2 -41 c-2 -6 -8 -10 -13 -10
-5 0 -11 4 -13 10 -2 6 4 11 13 11 9 0 15 -5 13 -11z"/>
<path d="M1287 693 c20 -4 21 -6 7 -38 -17 -41 -17 -45 -4 -45 6 0 10 8 10 18
0 10 7 27 15 38 21 28 18 34 -17 33 -23 -1 -26 -3 -11 -6z"/>
<path d="M430 2643 c0 -13 101 -96 108 -88 4 3 -11 22 -33 41 -47 40 -75 58
-75 47z"/>
<path d="M1465 2615 c-32 -31 -32 -65 -1 -94 61 -58 155 40 96 99 -27 27 -66
25 -95 -5z m89 -11 c11 -28 6 -51 -13 -68 -24 -22 -59 -17 -78 10 -12 18 -11
24 8 47 23 31 73 37 83 11z"/>
<path d="M365 2561 c-2 -5 15 -36 38 -69 23 -34 44 -57 45 -52 2 6 -1 17 -8
25 -19 22 16 68 47 60 13 -3 23 -1 23 5 0 5 -6 10 -12 10 -7 1 -39 7 -70 14
-32 8 -60 11 -63 7z m74 -27 c6 -6 -8 -34 -18 -34 -5 0 -16 11 -25 25 -17 26
-17 26 11 19 15 -4 30 -8 32 -10z"/>
<path d="M1574 2496 c-50 -22 -59 -72 -19 -111 28 -29 33 -30 58 -11 16 12 16
17 5 35 -16 27 -32 28 -18 1 9 -16 8 -22 -5 -26 -43 -17 -63 62 -23 90 12 9
30 16 40 16 22 0 50 -42 42 -64 -3 -9 -1 -16 5 -16 23 0 12 58 -15 79 -31 24
-30 24 -70 7z"/>
<path d="M290 2434 c-12 -19 -21 -36 -19 -38 2 -1 30 -17 61 -35 l57 -32 16
31 c22 43 16 74 -15 78 -14 2 -29 10 -33 18 -14 25 -45 15 -67 -22z m60 5 c0
-15 -19 -49 -28 -49 -4 0 -13 4 -20 9 -12 7 -12 12 -1 30 14 22 49 29 49 10z
m49 -18 c12 -8 13 -14 3 -35 -12 -27 -27 -32 -51 -17 -11 7 -10 13 4 35 19 29
23 30 44 17z"/>
<path d="M1645 2348 c-33 -17 -55 -33 -48 -35 15 -5 113 44 113 57 0 13 5 14
-65 -22z"/>
<path d="M230 2307 c0 -17 94 -109 103 -101 4 4 0 16 -10 26 -23 26 -4 68 32
68 14 0 25 5 25 10 0 6 -32 10 -75 10 -55 0 -75 -4 -75 -13z m80 -14 c0 -5 -5
-15 -10 -23 -8 -13 -13 -12 -32 8 l-22 22 32 0 c18 0 32 -3 32 -7z"/>
<path d="M1644 2284 c-20 -19 -24 -31 -19 -52 6 -29 30 -52 52 -52 21 0 15 14
-9 25 -51 22 -26 85 33 85 35 0 53 -23 45 -56 -5 -17 -3 -23 4 -19 17 10 11
61 -8 78 -27 25 -69 21 -98 -9z"/>
<path d="M205 2210 c11 -5 37 -16 58 -24 36 -15 52 -46 22 -46 -8 0 -15 -4
-15 -10 0 -18 29 -11 40 9 16 30 2 48 -48 65 -50 17 -92 21 -57 6z"/>
<path d="M1660 2149 c0 -5 11 -9 24 -9 33 0 47 -54 19 -75 -10 -7 -15 -17 -11
-20 4 -4 32 14 63 40 31 27 52 51 48 55 -12 11 -143 19 -143 9z m108 -18 c10
-6 7 -12 -12 -25 -14 -9 -26 -12 -26 -7 0 5 -3 16 -6 25 -7 18 21 22 44 7z"/>
<path d="M160 2123 c0 -9 95 -43 120 -43 24 0 -3 16 -49 29 -23 7 -49 15 -57
18 -8 3 -14 1 -14 -4z"/>
<path d="M144 2061 c4 -5 24 -12 45 -16 22 -3 47 -12 57 -19 19 -15 11 -36
-14 -36 -12 0 -13 -3 -4 -12 16 -16 42 7 42 38 0 19 -9 26 -52 39 -59 17 -82
19 -74 6z"/>
<path d="M1757 2035 c-27 -7 -51 -16 -53 -18 -8 -8 7 -77 16 -77 5 0 6 15 3
34 l-5 34 56 13 c31 7 56 16 56 21 0 10 -14 9 -73 -7z"/>
<path d="M189 1906 c-107 -24 -108 -28 -25 -75 59 -34 84 -40 49 -13 -29 23
-21 70 13 78 13 3 24 10 24 15 0 5 -1 9 -2 8 -2 -1 -28 -7 -59 -13z m-3 -32
c-3 -9 -6 -20 -6 -25 0 -5 -15 -2 -32 8 l-33 17 30 7 c46 10 48 10 41 -7z"/>
<path d="M1800 1877 c-71 -12 -94 -31 -25 -21 67 10 101 19 90 25 -6 3 -35 1
-65 -4z"/>
<path d="M1778 1823 c-21 -2 -38 -9 -38 -14 0 -6 21 -7 53 -4 l52 6 -47 -41
c-27 -23 -48 -46 -48 -52 0 -11 108 0 130 14 10 6 -4 7 -40 3 l-55 -6 50 50
49 51 -34 -2 c-19 -1 -52 -3 -72 -5z"/>
<path d="M90 1783 c0 -16 -3 -38 -6 -50 -4 -14 -2 -23 5 -23 6 0 11 9 11 21 0
20 4 21 60 14 41 -5 60 -4 60 4 0 6 -13 11 -29 11 -60 0 -89 11 -84 31 3 10 0
19 -6 19 -6 0 -11 -12 -11 -27z"/>
<path d="M143 1677 c-35 -11 -63 -26 -63 -32 0 -13 117 -71 126 -63 3 4 -4 11
-15 18 -31 16 -29 66 4 74 14 4 25 11 25 16 0 13 -3 12 -77 -13z m17 -37 c0
-23 -1 -24 -35 -8 -24 11 -25 13 -8 19 31 13 43 10 43 -11z"/>
<path d="M1760 1655 c-11 -28 1 -70 22 -78 24 -8 47 13 54 48 4 25 11 35 25
35 22 0 27 -38 7 -58 -6 -6 -9 -14 -6 -18 4 -3 14 6 24 21 14 21 15 30 5 51
-18 41 -53 29 -70 -24 -9 -31 -18 -42 -30 -40 -23 4 -26 46 -5 69 16 18 16 19
0 19 -9 0 -21 -11 -26 -25z"/>
<path d="M83 1553 c-25 -10 -12 -22 42 -39 30 -10 52 -21 48 -24 -5 -4 -29
-15 -55 -24 -46 -17 -58 -29 -40 -40 5 -3 38 -1 73 3 l64 8 -60 2 -60 2 58 22
c31 11 57 24 57 28 0 4 -24 16 -52 26 l-53 18 53 3 c28 2 52 7 52 13 0 9 -105
12 -127 2z"/>
<path d="M1878 1538 c-3 -20 -10 -24 -63 -29 l-60 -6 63 -1 c54 -2 62 -4 62
-21 0 -11 5 -23 10 -26 6 -4 10 15 10 49 0 55 -15 78 -22 34z"/>
<path d="M1785 1410 c45 -11 115 -11 115 0 0 6 -30 10 -72 9 -55 -1 -66 -3
-43 -9z"/>
<path d="M175 1380 c-17 -19 -20 -19 -36 -4 -11 10 -25 13 -38 9 -18 -5 -21
-15 -21 -56 l0 -49 48 1 c26 1 58 5 72 9 24 8 23 8 -7 9 -28 1 -33 5 -33 26 0
15 9 31 25 41 14 9 25 20 25 25 0 15 -16 10 -35 -11z m-37 -48 c3 -29 1 -32
-22 -32 -22 0 -26 5 -26 28 0 33 8 44 30 40 9 -2 16 -16 18 -36z"/>
<path d="M1880 1354 c0 -27 0 -27 -60 -20 -40 5 -60 3 -60 -4 0 -5 20 -10 44
-10 59 0 75 -7 69 -31 -3 -10 0 -19 6 -19 7 0 11 21 11 55 0 30 -2 55 -5 55
-3 0 -5 -12 -5 -26z"/>
<path d="M212 1220 c3 -39 0 -45 -18 -48 -18 -3 -23 4 -30 35 l-8 38 -5 -40
c-9 -58 -36 -60 -46 -3 -5 26 -10 36 -12 25 -3 -11 -2 -34 1 -51 6 -30 9 -32
39 -29 98 11 97 11 97 51 0 20 -5 44 -11 52 -7 11 -9 3 -7 -30z"/>
<path d="M1752 1238 c-7 -7 -12 -27 -12 -45 0 -26 5 -35 23 -42 34 -13 107
-20 107 -11 0 4 -22 11 -49 15 -56 8 -76 24 -66 56 6 19 12 21 66 17 65 -5 80
6 22 16 -56 9 -78 7 -91 -6z"/>
<path d="M235 1088 c6 -46 5 -48 -18 -48 -19 0 -26 8 -35 38 l-11 37 5 -42 c4
-40 3 -43 -21 -43 -19 0 -25 5 -25 23 0 12 -5 29 -11 37 -8 11 -9 7 -5 -19 3
-18 6 -40 6 -48 0 -12 9 -14 48 -8 93 13 93 13 86 54 -10 58 -26 73 -19 19z"/>
<path d="M1845 1080 c-5 -17 -12 -20 -36 -16 -16 3 -42 9 -59 12 -17 3 -30 1
-30 -4 0 -5 21 -13 46 -17 65 -9 73 -14 67 -36 -3 -10 -1 -19 4 -19 6 0 13 21
17 47 7 50 2 68 -9 33z"/>
<path d="M1690 960 c-6 -23 -9 -47 -7 -53 2 -7 10 7 16 31 12 41 23 50 49 34
10 -7 10 -15 2 -36 -12 -34 -13 -49 -1 -41 5 3 12 19 16 35 5 21 12 30 27 30
18 0 20 -4 14 -47 -8 -56 8 -40 19 19 7 36 6 37 -32 47 -98 26 -91 27 -103
-19z"/>
<path d="M134 971 c4 -6 20 -11 35 -11 16 0 43 -3 60 -6 l32 -7 -51 -34 c-27
-18 -50 -38 -50 -44 0 -6 27 9 60 32 64 44 71 55 43 63 -46 12 -135 17 -129 7z"/>
<path d="M473 490 c-68 -55 -85 -71 -80 -77 4 -3 22 8 42 26 20 17 38 31 41
31 3 0 -6 -21 -21 -46 -15 -25 -24 -48 -21 -51 3 -3 26 2 52 11 26 9 49 15 50
13 2 -2 -15 -17 -37 -34 -22 -17 -36 -33 -32 -36 11 -7 110 79 101 88 -4 4
-28 0 -54 -9 -26 -9 -51 -16 -56 -16 -4 0 6 23 23 51 34 54 29 80 -8 49z"/>
<path d="M1460 491 c-12 -24 -4 -48 21 -62 23 -12 59 4 59 28 0 13 3 13 15 3
21 -17 19 -41 -5 -47 -11 -3 -17 -9 -14 -14 10 -16 44 11 44 34 0 55 -96 101
-120 58z m64 -13 c14 -23 -5 -42 -33 -33 -20 6 -28 34 -14 49 11 11 35 3 47
-16z"/>
<path d="M1410 403 c1 -31 2 -35 11 -20 10 16 13 15 45 -13 30 -26 54 -38 54
-27 0 2 -25 25 -55 51 l-55 47 0 -38z"/>
<path d="M564 378 c-12 -13 -29 -35 -39 -50 -16 -26 -16 -30 -1 -53 25 -38 68
-34 102 10 38 50 41 36 5 -23 -32 -51 -36 -62 -23 -62 4 0 18 20 31 45 13 25
26 44 28 42 2 -2 -2 -28 -8 -56 -6 -29 -8 -55 -5 -58 3 -3 24 11 46 31 22 20
42 36 45 36 3 0 -6 -20 -21 -45 -14 -25 -21 -45 -16 -45 6 0 23 23 38 50 15
28 29 49 30 47 2 -2 -5 -28 -15 -58 -12 -32 -16 -58 -11 -63 5 -5 29 -10 52
-10 42 -1 43 0 42 32 -1 17 2 32 8 32 5 0 8 12 6 27 -2 23 -12 31 -51 45 l-49
18 -41 -35 c-22 -19 -42 -33 -45 -31 -2 3 1 28 7 57 10 46 9 53 -6 65 -16 11
-23 8 -61 -29 -35 -34 -46 -40 -60 -31 -28 18 -26 44 8 79 18 18 31 38 28 45
-2 7 -12 2 -24 -12z m280 -158 c13 -13 -3 -30 -28 -30 -29 0 -35 6 -29 31 4
15 11 18 27 13 11 -3 25 -10 30 -14z m-19 -56 c14 -15 14 -19 2 -31 -21 -21
-67 -1 -60 26 6 25 35 27 58 5z"/>
<path d="M1332 358 c-17 -17 -15 -36 9 -69 28 -40 54 -52 79 -39 29 15 25 53
-9 89 -30 32 -59 39 -79 19z m73 -39 c28 -34 28 -52 2 -57 -22 -4 -67 41 -67
68 0 31 34 25 65 -11z"/>
<path d="M1257 303 c-22 -21 6 -93 44 -114 27 -14 59 6 59 36 0 49 -76 106
-103 78z m70 -42 c27 -39 25 -55 -4 -59 -15 -2 -27 7 -43 33 -41 66 4 91 47
26z"/>
<path d="M1176 254 c-20 -19 -20 -24 0 -73 17 -43 35 -55 67 -45 41 13 2 134
-43 134 -5 0 -16 -7 -24 -16z m59 -34 c19 -37 19 -66 0 -73 -20 -8 -55 39 -55
74 0 40 34 39 55 -1z"/>
<path d="M1105 203 c-9 -20 -18 -47 -21 -59 -5 -19 -2 -21 21 -16 17 3 30 0
36 -9 9 -16 14 -12 24 20 5 16 4 21 -4 17 -7 -4 -13 8 -17 34 -9 54 -20 58
-39 13z m27 -27 c3 -16 0 -27 -10 -31 -21 -8 -24 -2 -16 29 8 33 20 33 26 2z"/>
<path d="M885 159 c-38 -65 -39 -69 -26 -69 5 0 13 9 16 20 10 31 63 27 75 -5
13 -35 24 -31 16 7 -13 66 -27 108 -36 108 -5 0 -25 -27 -45 -61z m55 -1 c0
-11 -8 -18 -20 -18 -23 0 -24 1 -8 35 12 27 28 18 28 -17z"/>
<path d="M991 173 c2 -85 17 -106 18 -25 1 42 -3 72 -9 72 -5 0 -10 -21 -9
-47z"/>
</g>
</svg>
